<?xml version="1.0" encoding="utf-8"?>
<!-- Generator: Adobe Illustrator 22.0.1, SVG Export Plug-In . SVG Version: 6.00 Build 0)  -->
<svg version="1.1" id="Layer_1" xmlns="http://www.w3.org/2000/svg" xmlns:xlink="http://www.w3.org/1999/xlink" x="0px" y="0px"
	 width="2321.9px" height="1465.4px" viewBox="0 0 2321.9 1465.4" style="enable-background:new 0 0 2321.9 1465.4;"
	 xml:space="preserve">
<style type="text/css">
	.st0{clip-path:url(#SVGID_2_);}
	.st1{clip-path:url(#SVGID_4_);fill:#EBF3F5;}
	
		.st2{clip-path:url(#SVGID_4_);fill:none;stroke:#000000;stroke-width:1.694;stroke-linecap:round;stroke-linejoin:round;stroke-miterlimit:10;}
	.st3{clip-path:url(#SVGID_4_);fill:#368097;}
	.st4{opacity:0.1;clip-path:url(#SVGID_4_);}
	.st5{clip-path:url(#SVGID_6_);}
	.st6{clip-path:url(#SVGID_4_);fill:#6BD49C;}
	
		.st7{clip-path:url(#SVGID_4_);fill:none;stroke:#5DB888;stroke-width:2.04;stroke-linecap:round;stroke-linejoin:round;stroke-miterlimit:10;}
	.st8{clip-path:url(#SVGID_4_);fill:#73E4A8;}
	.st9{clip-path:url(#SVGID_4_);fill:none;stroke:#5DB888;stroke-width:2.04;stroke-miterlimit:10;}
	.st10{clip-path:url(#SVGID_4_);fill:#1A2E35;}
	.st11{clip-path:url(#SVGID_4_);fill:#375A64;}
	.st12{clip-path:url(#SVGID_4_);fill:#A1D9F7;}
	.st13{clip-path:url(#SVGID_4_);}
	
		.st14{clip-path:url(#SVGID_4_);fill:none;stroke:#000000;stroke-width:1.701;stroke-linecap:round;stroke-linejoin:round;stroke-miterlimit:10;}
	.st15{clip-path:url(#SVGID_4_);fill:#FFFFFF;}
	
		.st16{clip-path:url(#SVGID_4_);fill:none;stroke:#000000;stroke-width:2.278;stroke-linecap:round;stroke-linejoin:round;stroke-miterlimit:10;}
	.st17{clip-path:url(#SVGID_4_);fill:#65AED6;}
	.st18{clip-path:url(#SVGID_4_);fill:none;stroke:#000000;stroke-width:2.02;stroke-miterlimit:10;}
	.st19{clip-path:url(#SVGID_4_);fill:#C47043;}
	.st20{clip-path:url(#SVGID_4_);fill:#D1976A;}
	
		.st21{clip-path:url(#SVGID_4_);fill:none;stroke:#000000;stroke-width:2.02;stroke-linecap:round;stroke-linejoin:round;stroke-miterlimit:10;}
	
		.st22{clip-path:url(#SVGID_4_);fill:none;stroke:#000000;stroke-width:1.217;stroke-linecap:round;stroke-linejoin:round;stroke-miterlimit:10;}
	.st23{clip-path:url(#SVGID_4_);fill:#613117;}
	
		.st24{clip-path:url(#SVGID_4_);fill:none;stroke:#000000;stroke-width:4.866;stroke-linecap:round;stroke-linejoin:round;stroke-miterlimit:10;}
	
		.st25{clip-path:url(#SVGID_4_);fill:none;stroke:#FFFFFF;stroke-width:4.04;stroke-linecap:round;stroke-linejoin:round;stroke-miterlimit:10;}
	.st26{clip-path:url(#SVGID_4_);fill:#454A78;}
	
		.st27{clip-path:url(#SVGID_4_);fill:none;stroke:#000000;stroke-width:2.3;stroke-linecap:round;stroke-linejoin:round;stroke-miterlimit:10;}
	
		.st28{clip-path:url(#SVGID_4_);fill:none;stroke:#000000;stroke-width:1.718;stroke-linecap:round;stroke-linejoin:round;stroke-miterlimit:10;}
	.st29{clip-path:url(#SVGID_4_);fill:#36211B;}
	.st30{clip-path:url(#SVGID_4_);fill:#1F130F;}
	.st31{clip-path:url(#SVGID_4_);fill:#8B599A;}
	
		.st32{clip-path:url(#SVGID_4_);fill:none;stroke:#000000;stroke-width:2.787;stroke-linecap:round;stroke-linejoin:round;stroke-miterlimit:10;}
	.st33{clip-path:url(#SVGID_4_);fill:#292C47;}
	.st34{clip-path:url(#SVGID_4_);fill:#F19E6F;}
	.st35{clip-path:url(#SVGID_4_);fill:#D04E50;}
	.st36{clip-path:url(#SVGID_4_);fill:#296173;}
	
		.st37{clip-path:url(#SVGID_4_);fill:none;stroke:#000000;stroke-width:2.04;stroke-linecap:round;stroke-linejoin:round;stroke-miterlimit:10;}
	.st38{clip-path:url(#SVGID_4_);fill:#516066;}
	.st39{clip-path:url(#SVGID_4_);fill:#D8E7EB;}
	
		.st40{clip-path:url(#SVGID_4_);fill:none;stroke:#000000;stroke-width:1.965;stroke-linecap:round;stroke-linejoin:round;stroke-miterlimit:10;}
	.st41{clip-path:url(#SVGID_4_);fill:#BBD2D9;}
	.st42{clip-path:url(#SVGID_4_);fill:#58362D;}
	
		.st43{clip-path:url(#SVGID_4_);fill:none;stroke:#000000;stroke-width:1.292;stroke-linecap:round;stroke-linejoin:round;stroke-miterlimit:10;}
	
		.st44{clip-path:url(#SVGID_4_);fill:none;stroke:#000000;stroke-width:1.784;stroke-linecap:round;stroke-linejoin:round;stroke-miterlimit:10;}
	
		.st45{clip-path:url(#SVGID_4_);fill:none;stroke:#000000;stroke-width:1.764;stroke-linecap:round;stroke-linejoin:round;stroke-miterlimit:10;}
</style>
<g>
	<defs>
		<rect id="SVGID_1_" x="-93" y="-210" width="2459.9" height="1843.5"/>
	</defs>
	<clipPath id="SVGID_2_">
		<use xlink:href="#SVGID_1_"  style="overflow:visible;"/>
	</clipPath>
	<g class="st0">
		<defs>
			<rect id="SVGID_3_" x="-93" y="-210" width="2459.9" height="1843.5"/>
		</defs>
		<clipPath id="SVGID_4_">
			<use xlink:href="#SVGID_3_"  style="overflow:visible;"/>
		</clipPath>
		<path class="st1" d="M2082,562.7c-158.7-65.8-386.6-117.9-590.8-213.1c-214.8-100.1-424-230.8-663.9-248
			C587.4,84.5,330.2,149,170,314.8C51.2,437.8-4.4,609.2,14.9,773c19.3,163.8,111.3,318.2,246.5,425.8
			c101.8,81,225.5,135.7,352.9,175.4c457.6,142.5,981.2,92.2,1397.2-134.2c105.5-57.4,208.4-130.1,258.6-233.2
			C2330.3,883.1,2335.6,667.9,2082,562.7"/>
		<path class="st1" d="M2289,589.9c-7.3-14.1-65.9-49.6-133.2-59.3c-8.9-1.3-16.6,5.8-12.5,13.2c0.5,0.9,1,1.5,1.5,1.6
			c16.8,10.2,36.4,15.6,54.2,24.1c27.5,13.1,50.7,33.7,65.9,58.5c1,1.6,2,3.3,3.6,4.3c3.1,1.9,7.2,0.9,10.5-0.7
			C2293.8,623.8,2296.3,604,2289,589.9"/>
		<path class="st1" d="M35.7,1017.2L35.7,1017.2c0,0.3,0,0.6,0.1,0.9c6.4,24,10.6,48.6,18.4,72.3c7.8,23.9,19.7,47.3,39,64.6
			c19.4,17.4,47.3,27.9,73.8,23.1c2-0.4,4.2-0.9,4.8-3.5c0.5-2.2-0.3-4.5-2-6.2c-46.5-47.7-94.9-95.9-125.6-153.3
			C42.1,1011.3,35.6,1012.7,35.7,1017.2"/>
		<path class="st1" d="M304,1271.1c-11.9-10.6-25-20-38.9-28.2c-7.6-4.5-17.4,1.7-15.6,9.9c0.3,1.4,0.9,2.6,1.8,3.8
			c8.1,10.4,17.7,19.8,28.5,28c8.4,6.3,22.8,11.2,27.8,1C309.9,1280.6,308.2,1274.9,304,1271.1"/>
		<path class="st1" d="M1376.7,241.1c-30.3-10.6-68.7-25.6-98.4-39.9c-3-1.5-6.8-0.3-8.2,2.6c-1.3,2.5-0.3,5.5,2.2,7
			c52.8,31.3,108.6,58.2,166.5,80.4c5.8,2.2,11-4.2,7-8.6C1428.4,263.2,1402.6,250.2,1376.7,241.1"/>
		<path class="st2" d="M1133.5,213.3c0.5-1.8,0.8-2.7,0.9-2.6c0.2,0-1,3.7-1.3,10.6c-0.3,6.8,0.7,16.9,6.7,27.7
			c2.8,5.4,6.4,11.2,9.2,18c2.9,6.8,4.1,15,2.4,23.2c-1.6,8.2-5.8,16.3-12.6,22.5c-6.7,6.3-16.1,9.8-25.7,9.8
			c-9.6,0.2-19.1-3.1-26.1-8.9c-7.1-5.8-11.5-14-13.3-22.1c-1.8-8.1-1.1-16.4,1.6-23.3c2.7-6.9,7.1-12.3,10.7-17.2
			c3.7-4.9,6.9-9.4,8.8-13.9c1.9-4.4,2.7-8.6,2.8-11.9c0-6.9-2.7-10.1-2.4-10.2c0,0,0.7,0.7,1.5,2.4"/>
		<path class="st2" d="M1108.3,217.4c0.1,7.5,0.1,15,0.2,22.5c0.1,7,0.1,14.1-0.8,21c-0.4,2.9-1,6-3.3,7.8c-0.6,0.5-1.3,0.8-2,0.9
			c-2.1,0.2-3.6-2-4.3-3.9c-0.2-0.5-0.3-1-0.2-1.4c0.2-0.6,0.8-0.9,1.3-1.2c6.1-3.3,13-4.8,19.9-4.3c2.4,0.2,5,0.7,6.3,2.7
			c0.8,1.1,0.9,2.5,0.8,3.9c-0.2,1.5-0.8,3-2,3.9c-1.2,0.9-3,1.1-4.1,0.1c-1.1-0.9-1.3-2.5-1.5-3.9c-1.5-16.3-1.2-32.8,0.9-49"/>
		<path class="st3" d="M1096.6,158.8c-77.7,0-143.3,85.1-143.3,85.1h323.8c0,0-65.4-85.1-134.6-85.1H1096.6z"/>
		<line class="st2" x1="982.9" y1="218.8" x2="1067.4" y2="218.8"/>
		<line class="st2" x1="1121.8" y1="218.8" x2="1196.4" y2="218.8"/>
		<line class="st2" x1="1230.5" y1="218.8" x2="1251.3" y2="218.8"/>
		<line class="st2" x1="1115.2" y1="128.5" x2="1115.2" y2="16.3"/>
		<polygon class="st3" points="1086.5,160.4 1097.6,110.8 1134.4,110.8 1143.8,160.4 		"/>
		<g class="st4">
			<g>
				<defs>
					<rect id="SVGID_5_" x="265.5" y="1392.9" width="1728.2" height="56.9"/>
				</defs>
				<clipPath id="SVGID_6_">
					<use xlink:href="#SVGID_5_"  style="overflow:visible;"/>
				</clipPath>
				<path class="st5" d="M1965.2,1449.8H293.9c-15.7,0-28.4-12.7-28.4-28.4c0-15.7,12.7-28.4,28.4-28.4h1671.3
					c15.7,0,28.4,12.7,28.4,28.4C1993.7,1437.1,1980.9,1449.8,1965.2,1449.8"/>
			</g>
		</g>
		<path class="st6" d="M2110,1253.5c-27.2-29.3-76.6-87-96.7-121.7l39.4-10.2c-16.3-1.8-47.8-8.7-47.6-7.9
			c-4-11.3-7.2-22.9-9.5-34.7c0,0,15.7-5.9,22.5-7.7c0,0-19.1-8.9-25.8-12c-4.5-15.2-7.9-30.8-10-46.6l0.5,0.9
			c21.8,19,80.1,28,126,214.7L2110,1253.5z"/>
		<path class="st7" d="M1988,1019.3c40.2,27.2,93.8,80.1,126.7,262.5"/>
		<path class="st6" d="M2135.7,1065.1c11.2-23.3,34.6-74.4,41.6-99.3c4-14.2,7.3-29.1,4.9-43.6l-0.2-3.7c-4.3-2.1-8.9-3.7-13.6-4.9
			l1.8-4c7.2-2.2,14.5-4.4,21.7-6.6l-1.7,2.7c13-20.9,23-43.7,29.4-67.5l-2.3-2.1c-7.2-0.9-14.5-1.2-21.8-1.2l5.5-3
			c5.2-5.5,14.1-7,17.9-13.7c1.8-3.2,2.1-7.1,2.2-10.9c0.5-10.6,1.1-21.2,1.6-31.8l-0.9,0.1c-49.3,42.4-89.9,112.7-105.2,176.5
			L2135.7,1065.1z"/>
		<path class="st6" d="M2134.5,1070.4c20.4-48.2,44.2-103.9,83.3-138.6c-0.2,25.4-6.9,87.5-6.9,87.5l-17.8,6.2l14.4,13.6
			l-38.4,118.1l-6.5,14.1l-13.5,6l3.8,11.1c0,0-29.8,22.6-33.8,38.5c-2-46.6,2.1-93.5,12.2-139.1L2134.5,1070.4z"/>
		<path class="st7" d="M2207.5,950.2c-34.7,75.7-52.1,155.6-66.2,236.4c-5.4,31.2-10.9,62.6-9.9,94.2"/>
		<path class="st8" d="M2117.7,1215.4c-44.9-49.4-73.3-114.1-79.6-181.1c12.7-1.4,25.7,0,37.8,4.2c-7.8-15.5-28.8-21.3-34.8-37.7
			c-2.1-5.9-2-12.3-1.7-18.6c0.6-14.8,1.6-29.7,2.9-44.5c11.6,3.7,23.1,7.3,34.7,11c-12-4.1-20.5-15.4-24.4-27.7
			c-3.9-12.2-3.8-25.4-3.2-38.2c1-20.8,3.2-41.6,6.7-62.1l0.1,1.4c42.1,47.6,63.1,111,74.6,174c13.9,75.9,10.2,151.2-11.2,225.3
			L2117.7,1215.4z"/>
		<path class="st9" d="M2066.6,862.9c24.9,78.6,40.5,160.2,46.4,242.6c1.4,19.5,2.3,39,3.1,58.6l5.3,120"/>
		<path class="st8" d="M2285.7,942.6c-19.1,14.3-79.5,76.7-79.5,76.7l9.9,17.4l-16.7-3l-20.3,92.9c0,0-9-19.5-11-30.1
			c-9.1,40.7-11.8,82.9-7.9,124.4l1.7,0.2c30.6-22.7,73-87.2,73-87.2l-25.4-14.4l36.3-14l27.7-71.3l-15.6-4.7l25.5-19.9
			L2285.7,942.6z"/>
		<path class="st7" d="M2278,956.9c-61.7,101.1-110.2,213-134.1,329"/>
		<rect x="2021.2" y="1270.8" class="st10" width="220.1" height="30.2"/>
		<path class="st10" d="M2241.6,1301.4h-220.8v-31h220.8V1301.4z M2021.6,1300.6h219.3v-29.5h-219.3V1300.6z"/>
		<polygon class="st10" points="2041.6,1290.9 2073.3,1422.5 2190.5,1422.5 2221.1,1301 		"/>
		<path class="st11" d="M2241.6,1300.9c0,0.4-49.4,0.8-110.4,0.8c-61,0-110.4-0.4-110.4-0.8c0-0.4,49.4-0.8,110.4-0.8
			C2192.2,1300.1,2241.6,1300.4,2241.6,1300.9"/>
		<path class="st12" d="M684.4,954.7c-13-116.7-23.1-247.8-26.7-292.8c-0.7-8.7-1.2-17.4-1.7-26.1c-0.3-5.3-0.4-10.8,1.8-15.6
			c4-8.9,14.3-13.1,23.9-15.5c11.7-2.9,123.7-4.6,177-5.3c15.9-0.2,29.4,11.4,31.4,26.9l40.1,356.1L684.4,954.7"/>
		<path class="st12" d="M862.7,853.5c4,46.5,9.5,99.7,18.1,145.1c2.5,13,6,27.3,17.1,34.9c4.6,3.1,106.3,20.5,158.1,16.4
			c3.6-0.3,6.5-3,6.9-6.5c1.9-14.9,6.3-54.6,3.7-76.1c-3.3-26.8-13.3-53.5-31.9-73.4c-28.4-30.3-73.1-41.2-115.1-40.4L862.7,853.5z"
			/>
		<path class="st13" d="M881.1,877.6c-7.5-5.9-8.4-15-8.3-24.1l46.9,0c9-0.2,18.2,0.2,27.3,1.2C929,871.2,905.9,896.4,881.1,877.6"
			/>
		<path class="st14" d="M1057.7,931.3c-5.3-13.7-12.9-26.5-23-37.4c-24-25.6-59.5-37.3-95.3-39.9c-1.1-0.1-43-1.6-44.1-1.7"/>
		<path class="st14" d="M848,681.3c6.8,107.3,24.2,271.9,32.8,317.3c2.5,13,6,27.3,17.1,34.9c4.6,3.1,106.3,20.5,158.1,16.4
			c3.6-0.3,6.5-3,6.9-6.5c1.8-14,5.8-49.9,4.1-72"/>
		<path class="st12" d="M1006,1048.8H859.7c-6.6,0-11.9-5.3-11.9-11.9c0-6.6,5.3-11.9,11.9-11.9H1006c6.6,0,11.9,5.3,11.9,11.9
			C1017.8,1043.5,1012.5,1048.8,1006,1048.8"/>
		<path class="st15" d="M842.9,1369.8h-33.4v-329.7h-26.3v329.7h-33.4c-24.3,0-44,19.3-44,43.1h181.1
			C886.8,1389.1,867.2,1369.8,842.9,1369.8"/>
		<path class="st16" d="M842.9,1369.8h-33.4v-329.7h-26.3v329.7h-33.4c-24.3,0-44,19.3-44,43.1h181.1
			C886.8,1389.1,867.2,1369.8,842.9,1369.8z"/>
		<polygon class="st13" points="809.5,1040.1 783.1,1040.1 783.1,1106 809.5,1084.9 		"/>
		<line class="st16" x1="792.2" y1="1369.8" x2="811.7" y2="1369.8"/>
		<path class="st17" d="M879.9,1048.8h-20.2c-6.6,0-11.9-5.3-11.9-11.9c0-6.6,5.3-11.9,11.9-11.9h20.2c6.6,0,11.9,5.3,11.9,11.9
			C891.8,1043.5,886.5,1048.8,879.9,1048.8"/>
		<path class="st18" d="M879.9,1048.8h-20.2c-6.6,0-11.9-5.3-11.9-11.9c0-6.6,5.3-11.9,11.9-11.9h20.2c6.6,0,11.9,5.3,11.9,11.9
			C891.8,1043.5,886.5,1048.8,879.9,1048.8z"/>
		<path class="st14" d="M660.9,615.4c2.7-3.2,7.7-3.8,11.7-2.3c3.9,1.6,6.9,4.8,9.3,8.3c10.5,15.4,22.5,212.4,22.3,230.9"/>
		<path class="st19" d="M1114.9,628.7c5.9-11.7,10.2-29,11.3-36.1c0.4-2.6,3.2-4.1,5.3-2.4c2.9,2.4,5.1,7.2,5.7,10.4
			c0.8,4.7-1.3,12.6-2.4,15.8c-1.1,3.2-0.7,8.4,2.2,8.1c3-0.3,7-0.3,10-2.6l15.9,51.9c-8.5,7.3-19.1,8.9-22.5,9.9
			c-3.2,0.9-10.3,8.5-10.3,8.5l-26.3-39.7C1109.8,647.6,1112.4,633.7,1114.9,628.7"/>
		<path class="st20" d="M1170.9,660.7c0.7,2.8,1.3,8.8-0.6,11.1c-1.5,1.8-3.9,2.5-6.2,3c-6.3,1.2-13,0.6-19-1.8
			c-0.9-0.4-1.8-0.8-2.5-1.5c-1.8-1.8-0.6-6.8-0.1-9.2"/>
		<path class="st19" d="M1170.9,660.7c2.8,3.1,1.9,8.9-0.6,11.1c-1.8,1.5-3.9,2.5-6.2,3c-6.3,1.2-13,0.6-19-1.8
			c-0.9-0.4-1.8-0.8-2.5-1.5c-1.8-1.8-0.6-6.8-0.1-9.2"/>
		<path class="st19" d="M1174,646.1c1.5,1.7,2.1,3.7,1.7,6.9c-0.3,2.6-1.2,6.7-3.4,7.7c-2.5,1.1-26.5,2.2-29.2,1.4
			c-4.3-1.2-4-4-2.4-12.7"/>
		<path class="st19" d="M1176.9,630.3c2.8,8.3-1.8,15.1-2.9,15.8c-4.7,3.1-23,8-32.1,4.6c-4.5-1.7-4.4-8.4-4-12.4"/>
		<path class="st19" d="M1170.5,615.5c4.5-0.9,8.9,2,9.8,6.5c0.9,4.4-2.1,8.8-6.6,9.6l-28.5,5.5c-4.8,0.9-9.4-2.4-9.9-7.2
			c-0.5-4.3,2.5-8.2,6.8-9L1170.5,615.5z"/>
		<path class="st13" d="M1164.2,674.6c-1.2-0.4-2.8,0.1-4.1,0.1c-1.5,0-3,0-4.5-0.2c-3-0.3-5.9-0.9-8.7-1.9
			c-1.2-0.4-2.7-0.9-3.6-1.8c-0.6-0.7-0.7-1.6-0.7-2.5c-0.1-2,0.4-4.1,0.6-6.1c0.1-0.9-1.2-0.9-1.5-0.2c-0.8,2.3-1.3,4.7-1.1,7.1
			c0.3,2.7,2.1,3.9,4.5,4.8c3.1,1.1,6.4,1.8,9.7,2.1c1.7,0.1,3.4,0,5-0.1c1.3-0.1,3.3-0.1,4.4-1
			C1164.4,674.8,1164.3,674.6,1164.2,674.6"/>
		<path class="st13" d="M1169.9,660.3c-7.1,1-14.2,1.3-21.4,1.2c-1.6,0-3.7,0-5.1-0.2c-0.9-0.2-2.4-0.7-2.8-2c-0.3-1-0.1-2.1,0-3.1
			c0.2-1.8,0.5-3.7,0.7-5.5c0.1-1-1.4-1.1-1.7-0.2c-0.7,2.8-1.6,6-1.2,8.9c0.3,1.9,1.5,3,3.2,3.6c1.5,0.6,3.2,0.6,4.8,0.6
			c3.3,0.1,6.5,0.1,9.8-0.1c4.7-0.2,9.4-0.6,14.1-1.3C1171.6,662,1171.1,660.1,1169.9,660.3"/>
		<path class="st13" d="M1173.9,646.1c-5.1,2.1-10.5,3.5-15.9,4.3c-3.3,0.5-6.7,0.8-10,0.6c-2.7-0.2-6.4-0.4-8-2.9
			c-1.8-2.8-1.5-6.6-1.5-9.8c0-0.7-1.2-0.9-1.3-0.2c-0.6,3.1-0.6,6.5,0.6,9.5c1.3,3.1,4,4.2,7.1,4.7c7,1.1,14.7-0.3,21.4-2.5
			C1168.9,649,1172,648.1,1173.9,646.1C1174,646.1,1174,646.1,1173.9,646.1"/>
		<path class="st21" d="M1173.7,631.6l-28.5,5.5c-4.8,0.9-9.4-2.4-9.9-7.2c-0.2-2,0.3-4,1.4-5.6"/>
		<path class="st21" d="M1136.3,634.8c1.7,9.7-2,20.1-9.5,26.6"/>
		<path class="st15" d="M950.3,616.5L993,751.7L1102,650l29.2,44l-122.6,135c-17.9,19.7-50.2,16.6-63.8-6.2l-33.6-56.2L950.3,616.5z
			"/>
		<polyline class="st22" points="1102,650 1131.1,694 1027,808.6 		"/>
		<polyline class="st22" points="985.5,768 993,751.7 1045.9,702.3 		"/>
		<path class="st15" d="M709,906.8l0.7-61.5l-36.9-154.7c-10-31,6.3-64.4,37.2-76.1l67.6-27.5l86.9-3.5l85.8,32.9l-32.6,286
			L709,906.8z"/>
		<line class="st22" x1="925.6" y1="830.9" x2="942.9" y2="681.3"/>
		<path class="st13" d="M854.9,660.6c0,1.5-1.2,2.7-2.7,2.7c-1.5,0-2.7-1.2-2.7-2.7c0-1.5,1.2-2.7,2.7-2.7
			C853.7,657.9,854.9,659.1,854.9,660.6"/>
		<path class="st13" d="M854.9,675.8c0,1.5-1.2,2.7-2.7,2.7c-1.5,0-2.7-1.2-2.7-2.7c0-1.5,1.2-2.7,2.7-2.7
			C853.7,673.1,854.9,674.3,854.9,675.8"/>
		<polygon class="st19" points="864.5,585.6 861.4,650 777.7,587 777.7,495.7 864.5,495.7 		"/>
		<polyline class="st22" points="862.6,626.5 893.2,633.7 875.8,587.8 		"/>
		<polyline class="st22" points="764.4,591.3 812.3,648.2 838.5,632.8 861.4,649.5 861.4,681.2 		"/>
		<path class="st23" d="M864.5,495.7l-87.4-0.5l0.4,21.7c1.3,7.5-1.6,13.5,4.2,18.5l77.2,56.9l5.6-6.7V495.7z"/>
		<path class="st19" d="M765.8,478.4c0.8,3.2,3.5,15,6.1,26.6c0.3,1.1,7.9,1.7,8.3,2.8c4.5,14.9,8,27.8,22.7,34.1
			c8,3.4,16.5,7.1,22.6,10.1c6.4,3.1,13.7,4.1,20.8,3.2l0.4,0c11.2-1.5,21.1-7.9,26.9-17.4c3.1-5.2,6.2-10.3,7.4-12.7
			c2.4-4.9,4.9-9.9,5.6-15.3c0.4-2.5,0.5-5.1,0.2-7.6c-3.2-23.7-6-44.3-8.9-65c-0.3-1.9-0.5-3.8-0.8-5.7
			c-4.4-32.5-35.2-55.1-68.2-50.2c-34.7,5.1-57.4,38.2-49.3,71.6L765.8,478.4z"/>
		<path class="st24" d="M877.2,458.9c-7.1-1.8-14.6-2.5-22-1.9"/>
		<path class="st24" d="M834.4,459.5c-8.5,0.8-16.7,3.8-23.7,8.4"/>
		<path class="st13" d="M868.7,477.6L868.7,477.6c2.2-0.3,3.7-2.2,3.4-4.3l-0.5-4c-0.3-2.1-2.2-3.6-4.4-3.3l-0.1,0
			c-2.1,0.3-3.6,2.2-3.3,4.3l0.5,4C864.7,476.4,866.6,477.9,868.7,477.6"/>
		<path class="st13" d="M828.9,482.9L828.9,482.9c2.2-0.3,3.7-2.2,3.4-4.3l-0.5-4c-0.3-2.1-2.2-3.5-4.4-3.3l-0.1,0
			c-2.1,0.3-3.6,2.2-3.3,4.3l0.5,4C824.8,481.7,826.7,483.1,828.9,482.9"/>
		<path class="st22" d="M852.1,483.1c3,4.2,6.3,13.5,5.7,15.3c-0.8,2.1-2.6,3.6-4.6,4.6c-2,1-4.2,1.4-6.4,1.9"/>
		<polygon class="st13" points="851.6,506.4 855.5,516.3 845.9,515.4 847,507 798,513.2 784.3,488.7 776.4,489 785.3,536.2 
			839.2,562 866.6,558.4 887.9,524.7 886.7,502 		"/>
		<path class="st15" d="M830.6,517.1l35.1-3.9c0,0-0.2,12.7-14.4,14.6C835.2,529.9,830.6,517.1,830.6,517.1"/>
		<path class="st13" d="M806.1,433.3l29.9,0.8c13.5,0.4,26.8-3.6,37.8-11.4l1.2-0.9c-9.5-30.8-40.1-45.8-68.7-40.3
			c-33.6,6.4-55,37.8-46.4,72.4l7.6,37l16.8-2.2l-3.4-24.9c-0.7-5.3,3.1-10.1,8.4-10.8c4.9-0.6,8.3-5,7.6-9.8
			C796.2,437.9,800.6,433.2,806.1,433.3"/>
		<path class="st19" d="M772.1,469.2c-5.3-4.8-14.9-3.7-18.9,2.2c-1.6,2.3-2.3,5-2.7,7.7c-1,6.2-0.4,12.7,1.6,18.7
			c2.1,6,6,11.8,12,14.3c6,2.5,13.5,1.6,16.1-4.3"/>
		<path class="st22" d="M772.6,496.2c0.2-0.9-0.1-1.8-0.5-2.6c-1.9-4.3-5.6-7.8-10.1-9.3"/>
		<path class="st22" d="M772.5,495.3c0.2-0.1,0-0.4-0.1-0.5c-2.9-2.5-6.9-3.6-10.6-3.1"/>
		<path class="st13" d="M1125.4,1211.3c3,4.5,5,37.8,8,42.3c1,1.5,2,3,3.6,3.7c1.2,0.6,2.6,0.6,4,0.6c34.2,0.3,68.5,2.1,102.6,5.4
			c10.3,1,20.9,2.1,30.8-0.8c9.9-2.9,19-11.1,19.5-21.2c0.1-1.4-0.1-2.8-0.9-3.9c-1.3-1.8-3.9-1.8-6.1-2.3
			c-34.6-8.5-64.4-18.2-87.9-34.3"/>
		<line class="st25" x1="1219.5" y1="1211.5" x2="1209.2" y2="1219.6"/>
		<line class="st25" x1="1226.8" y1="1215.6" x2="1216.6" y2="1223.6"/>
		<line class="st25" x1="1234.9" y1="1219" x2="1224.7" y2="1227.1"/>
		<path class="st13" d="M1125.4,1211.7c3,4.5,5,37.8,8,42.3c1,1.5,2,3,3.6,3.7c1.2,0.6,2.6,0.6,4,0.6c34.2,0.3,68.5,2.1,102.6,5.4
			c10.3,1,20.9,2.1,30.8-0.8c9.9-2.9,19-11.1,19.5-21.2c0.1-1.4-0.1-2.8-0.9-3.9c-1.3-1.8-3.9-1.8-6.1-2.3
			c-34.6-8.5-64.4-18.2-87.9-34.3"/>
		<line class="st25" x1="1219.5" y1="1212" x2="1209.2" y2="1220.1"/>
		<line class="st25" x1="1226.8" y1="1216" x2="1216.6" y2="1224.1"/>
		<line class="st25" x1="1234.9" y1="1219.5" x2="1224.7" y2="1227.5"/>
		<path class="st26" d="M734.5,920.4c0,0,308.3-88.1,336.1-75.3c27.8,12.9,139.1,359.8,139.1,359.8l-84.4,11.4l-112.5-269.6
			c0,0-219,83.6-254.1,76.5C723.5,1016.1,734.5,920.4,734.5,920.4"/>
		<path class="st13" d="M940.9,1362.9c-3.2,6.9-9.8,41.7-6.8,46.1c1,1.5,2,3,3.6,3.7c1.2,0.6,2.6,0.6,4,0.6
			c34.2,0.3,68.5,2.1,102.6,5.4c10.3,1,20.9,2.1,30.8-0.8c9.9-2.9,19-11.1,19.5-21.2c0.1-1.4-0.1-2.8-0.9-3.9
			c-1.3-1.8-3.9-1.8-6.1-2.3c-34.6-8.5-64.4-18.2-87.9-34.3"/>
		<line class="st25" x1="1020.1" y1="1367.1" x2="1009.9" y2="1375.1"/>
		<line class="st25" x1="1027.5" y1="1371.1" x2="1017.2" y2="1379.2"/>
		<line class="st25" x1="1035.6" y1="1374.6" x2="1025.3" y2="1382.6"/>
		<path class="st26" d="M1012.8,946.7c13.6,10.2,23.9,19.4,31.1,26.6c9.2,9.1,13.7,21.8,12.3,34.6l-41.2,353.7l-80,8.2l6.9-341.7
			l-185-4.6"/>
		<path class="st21" d="M874.1,995.8l138.7-49.1c0,0,46.7,21.8,43.7,54.2c-3,32.4-14.6,139.3-14.6,139.3"/>
		<path class="st12" d="M673.8,853.5c4,46.5,9.5,99.7,18.1,145.1c2.5,13,6,27.3,17.1,34.9c4.6,3.1,106.3,20.5,158.1,16.4
			c3.6-0.3,11.4-3.5,11.4-12.3c0-18.1,1.8-48.7-0.8-70.2c-3.3-26.8-13.3-53.5-31.9-73.4c-28.4-30.3-73.1-41.2-115.1-40.4
			L673.8,853.5z"/>
		<path class="st13" d="M692.1,877.6c-7.6-5.8-8.4-15-8.3-24.1l46.9,0c9-0.2,33.9,1,49.3,4.9l-44,9.3
			C723.5,884.3,706.4,888.5,692.1,877.6"/>
		<path class="st14" d="M868.8,931.3c-5.3-13.7-12.9-26.5-23-37.4c-24-25.6-59.6-37.3-95.3-39.9c-1.1-0.1-43-1.6-44.1-1.7"/>
		<path class="st14" d="M659.1,681.3c6.8,107.3,24.2,271.9,32.8,317.3c2.5,13,6,27.3,17.1,34.9c4.6,3.1,106.3,20.5,158.1,16.4
			c3.6-0.3,11.4-2.1,11.4-12.3c0-16.6,1.3-44-0.4-66.2"/>
		<path class="st14" d="M845.5,944.2c-5.3-13.7-12.9-26.5-23-37.4c-24-25.6-59.6-37.3-95.3-39.9c-1.1-0.1-43-1.6-44.1-1.7"/>
		<path class="st14" d="M846.7,1049.9c3.6-0.3,9-4,9-11c0-14.9,0.9-32.4-0.8-54.5"/>
		<path class="st12" d="M196.5,961.2c-13-119-23.1-252.8-26.7-298.7c-0.7-8.9-1.2-17.7-1.7-26.6c-0.3-5.4-0.4-11,1.8-15.9
			c4-9.1,14.3-13.4,23.9-15.8c11.7-2.9,123.7-4.7,177-5.4c15.9-0.2,29.4,11.6,31.4,27.4l40.1,363.2L196.5,961.2"/>
		<path class="st15" d="M305.7,1380.4h33.4V1044h26.3v336.3h33.4c24.3,0,44,19.7,44,44H261.8
			C261.8,1400.1,281.5,1380.4,305.7,1380.4"/>
		<path class="st27" d="M305.7,1380.4h33.4V1044h26.3v336.3h33.4c24.3,0,44,19.7,44,44H261.8
			C261.8,1400.1,281.5,1380.4,305.7,1380.4z"/>
		<polygon class="st13" points="339.1,1044 365.5,1044 365.5,1111.3 339.1,1089.8 		"/>
		<line class="st27" x1="356.4" y1="1380.4" x2="336.9" y2="1380.4"/>
		<path class="st12" d="M516.7,1058.3H370.9c-6.7,0-12.1-5.4-12.1-12.1c0-6.7,5.4-12.1,12.1-12.1h145.8c6.7,0,12.1,5.4,12.1,12.1
			C528.8,1052.9,523.3,1058.3,516.7,1058.3"/>
		<path class="st28" d="M390.6,1058.3h-19.7c-6.7,0-12.1-5.4-12.1-12.1c0-6.7,5.4-12.1,12.1-12.1h19.7c6.7,0,12.1,5.4,12.1,12.1
			C402.7,1052.9,397.3,1058.3,390.6,1058.3z"/>
		<path class="st12" d="M374.8,858c4,47.4,9.5,101.7,18.1,148c2.5,13.3,6,27.9,17.1,35.6c4.6,3.2,106.3,20.9,158.1,16.7
			c3.6-0.3,6.5-3,6.9-6.6c1.9-15.2,6.3-55.6,3.7-77.6c-3.3-27.4-13.3-54.5-31.9-74.8c-28.4-30.9-73.1-42-115.1-41.2L374.8,858z"/>
		<path class="st13" d="M393.2,882.6c-7.5-6-8.4-15.3-8.3-24.6l46.9,0c9-0.2,18.2,0.2,27.3,1.2C441.1,876,418,901.7,393.2,882.6"/>
		<path class="st28" d="M569.8,937.4c-5.3-14-12.9-27.1-23-38.1c-24-26.1-59.6-38.1-95.3-40.7c-1.1-0.1-43-1.7-44.1-1.7"/>
		<path class="st28" d="M360.1,682.3c6.8,109.4,24.2,277.4,32.8,323.7c2.5,13.3,6,27.9,17.1,35.6c4.6,3.2,106.3,20.9,158.1,16.7
			c3.6-0.3,6.5-3,6.9-6.6c1.8-14.3,5.8-50.9,4.1-73.4"/>
		<path class="st28" d="M173,615.2c2.7-3.3,7.7-3.9,11.7-2.3c3.9,1.6,6.9,4.9,9.3,8.5c10.5,15.8,22.5,216.6,22.3,235.5"/>
		<path class="st29" d="M350.7,434.8c0,28.6-23.2,51.8-51.8,51.8s-51.8-23.2-51.8-51.8c0-28.6,23.2-51.8,51.8-51.8
			S350.7,406.2,350.7,434.8"/>
		<path class="st30" d="M293.8,463c0,8.5,2.1,16.5,5.7,23.5c28.3-0.3,51.2-23.3,51.2-51.7c0-8.5-2.1-16.5-5.7-23.5
			C316.7,411.6,293.8,434.6,293.8,463"/>
		<path class="st29" d="M469.1,479.8c0,43.4-35.1,78.5-78.5,78.5c-43.4,0-78.5-35.1-78.5-78.5c0-43.4,35.1-78.5,78.5-78.5
			C434,401.3,469.1,436.5,469.1,479.8"/>
		<polygon class="st31" points="498.6,637.3 544.3,840.2 499.6,868.6 453.1,776.9 		"/>
		<polygon class="st15" points="319.8,928.8 307.8,807.9 264.7,628.9 381.2,589.5 477.1,627.1 489.7,914.2 		"/>
		<path class="st3" d="M567.4,1364.6h36.7l35.7-311.3c0.8-12-3.6-23.7-12-31.3L489.7,914.2H389c0,0-14.2,88.2,28.3,113
			c42.5,24.8,140.4,57.2,140.4,57.2"/>
		<line class="st28" x1="510.9" y1="939" x2="635.7" y2="1030.1"/>
		<path class="st3" d="M562.6,1054.7l-12.8,36.6c-1.4,3.9-1.9,8.1-1.6,12.2l19.2,261.1"/>
		<path class="st13" d="M562,1054.5c-3.9,10.5-7.7,21.1-11.4,31.6c-0.6,1.6-1.1,3.1-1.7,4.7c-1.4,4.1-2,8.3-1.7,12.6
			c0.1,0.9,0.1,1.9,0.2,2.8c0.4,6.2,0.9,12.3,1.3,18.5c0.8,10.6,1.5,21.1,2.3,31.7l2.9,40.2c1.1,14.7,2.1,29.4,3.2,44.2l3.2,43.5
			l2.8,38.1c0.7,9.4,1.4,18.8,2.1,28.1c0.2,3,0.5,5.9,0.8,8.8c0.2,1.7,0.2,2.9,0.5,4.7c0,0.1,0,0.2,0,0.3c0.1,0.8-0.1-0.3,0,0
			c0,0,0,0.1,0,0.2c0.1,1.1,1.9,1.2,1.8,0c0-0.1,0-0.1,0-0.2c0,0,0-0.1,0-0.1c-0.1,0.8,0,0.2,0-0.1c0-0.1,0-0.2,0-0.3
			c0-0.6,0-1.2-0.1-1.8c-0.1-2.3-0.2-4.6-0.3-6.9c-0.4-8.3-1.2-16.7-1.8-25c-0.9-12-1.8-24-2.7-36c-1-14.1-2.1-28.3-3.1-42.4
			c-1.1-14.8-2.2-29.6-3.3-44.4c-1-13.9-2.1-27.8-3.1-41.6c-0.8-11.4-1.7-22.8-2.5-34.1c-0.5-7.4-1.1-14.8-1.6-22.2
			c-0.1-1.7-0.3-3.5-0.4-5.2c-0.3-4.4,0.1-8.8,1.5-13c3.8-11,7.6-22,11.2-33.1c0.4-1.1,0.7-2.2,1.1-3.4
			C563.5,1054.1,562.3,1053.8,562,1054.5"/>
		<path class="st3" d="M470.4,1364.6h42.9l23.8-311.3c0.8-12-3.6-23.7-12-31.3L403.4,914.2H290.9c0,0-17.9,80.2,24.6,105
			c27.8,16.2,96.3,57.8,122.5,69.2"/>
		<path class="st31" d="M308.2,917.6l-0.4-109.7l-43-178.9l59.8-20.3l54.9,163.9l5,145.6c5.6,23-15.7,43.6-38.5,37.2L308.2,917.6z"
			/>
		<polyline class="st32" points="308.4,613.3 310.2,686.5 328.3,690.8 313.8,706.4 365.7,779.1 		"/>
		<path class="st28" d="M435.1,944.2l93.4,80c6.5,5.6,10,14,9.3,22.6l-3.4,42.3"/>
		<path class="st3" d="M461.5,1052c-6,8.8-12.1,17.6-18.1,26.4c-2.1,3.1-4.3,6.3-5.4,10.1c-1.3,4.4-0.8,9.1-0.3,13.7
			c10,99.5,22.8,163,32.8,262.5"/>
		<path class="st13" d="M461.2,1051.7c-3.5,4.5-6.7,9.2-9.9,13.9c-3.3,4.7-6.6,9.4-9.8,14.2c-2.9,4.3-4.9,8.7-5.1,14
			c-0.2,5.6,0.8,11.3,1.4,16.9c2.2,21.4,4.7,42.8,7.4,64.2c2.5,19.5,5.2,39,7.9,58.5c2.7,19.6,5.4,39.2,7.9,58.8
			c1.3,10.4,2.6,20.8,3.8,31.2c0.6,5.4,1.3,10.9,1.9,16.3c0.6,5.5,1.1,11.1,1.8,16.6c0.4,2.8,0.8,5.7,1.2,8.5
			c0.1,0.8,1.4,0.6,1.4-0.2c-1.4-21.6-4.3-43.2-7.1-64.7c-2.5-19.4-5.2-38.8-7.9-58.2c-2.7-19.4-5.5-38.8-8.1-58.2
			c-2.8-20.8-5.4-41.6-7.7-62.4c-0.6-5.6-1.2-11.3-1.8-16.9c-0.5-5.4-1.4-11.1,0.4-16.4c1.7-5.2,5.5-9.7,8.5-14.2
			c3.2-4.8,6.5-9.5,9.6-14.3c1.6-2.4,3.2-4.8,4.6-7.3C462.1,1051.8,461.5,1051.3,461.2,1051.7"/>
		<path class="st33" d="M599.6,1365.2c0,0-10.1,19.7,17.3,41.3c0,0,26.8,27.7,23.1,32.1c-3.7,4.4-31.9,5-49.1,0
			c-17.2-5-17.6-37.5-25.4-51.5c-2.4-4.4,1.3-16.9,7.3-22.5"/>
		<path class="st34" d="M600.1,1364.6c0,0,0.5,6.5,2.6,17.8c1.7,9.4,23.9,34.9,23.1,37.4c-0.8,2.5-22.9,4.8-31.9-1.7
			c-9-6.5-18.5-29.2-20.5-40.5c-1.8-10.5-0.4-13-0.4-13"/>
		<polygon class="st33" points="565,1384.7 565,1431.6 569.9,1431.6 569.9,1394.7 		"/>
		<path class="st33" d="M507.2,1365.2c0,0-10.1,20,17.3,41.9c0,0,26.8,28.1,23.1,32.6c-3.7,4.5-31.9,5.1-49.1,0
			c-17.2-5.1-17.6-38.1-25.4-52.2c-2.6-4.8-0.9-17.7,6-22.9"/>
		<path class="st34" d="M508.5,1364.6c0,0,1.6,8.7,3.7,20.1c1.7,9.5,22,33.3,21.2,35.9s-22.9,4.9-31.9-1.7
			c-9-6.6-19.5-30.9-21.5-42.3c-1.8-10.6-0.7-12-0.7-12"/>
		<polygon class="st33" points="472.5,1384.7 472.5,1431.6 477.4,1431.6 477.4,1395.5 		"/>
		<polygon class="st34" points="411.9,697.4 350.4,599.2 350.4,519.9 410.7,519.9 		"/>
		<path class="st13" d="M410.7,519.9h-60.4v9.2c0,16.4,32.6,51.3,32.6,51.3c7.5,7.1,17.9,5.9,24.4-2.9l3.4-4.6V519.9z"/>
		<path class="st31" d="M480.9,912.1l-13.1-144.6l-38.6-160.1l69.4,30v293C498.6,930.2,482.1,929,480.9,912.1"/>
		<path class="st34" d="M639.2,800.6l25.9-4.6l41.2,10c6.1,1.5,10.7,7.3,11.1,14.2l0.6,9.4l-74.1,0.3L639.2,800.6z"/>
		<polygon class="st31" points="638.7,797.5 480.9,803.9 477.2,867.1 644.2,829.9 		"/>
		<line class="st32" x1="502.1" y1="803.1" x2="621.3" y2="798.2"/>
		<polyline class="st32" points="480.9,705.2 495,769.2 498.6,906.8 		"/>
		<path class="st12" d="M185.9,858c4,47.4,9.5,101.7,18.1,148c2.5,13.3,6,27.9,17.1,35.6c4.6,3.2,106.3,20.9,158.1,16.7
			c3.6-0.3,11.4-3.6,11.4-12.6c0-18.5,1.8-49.7-0.8-71.6c-3.3-27.4-13.3-54.5-31.9-74.8c-28.4-30.9-73.1-42-115.1-41.2L185.9,858z"
			/>
		<path class="st13" d="M204.2,882.6c-7.6-5.9-8.4-15.3-8.3-24.6l46.9,0c9-0.2,33.9,1,49.3,5l-44,9.5
			C235.6,889.4,218.5,893.7,204.2,882.6"/>
		<path class="st28" d="M380.9,937.4c-5.3-14-12.9-27.1-23-38.1c-24-26.1-59.6-38.1-95.3-40.7c-1.1-0.1-43-1.7-44.1-1.7"/>
		<path class="st28" d="M171.2,682.3c6.8,109.4,24.2,277.4,32.8,323.7c2.5,13.3,6,27.9,17.1,35.6c4.6,3.2,106.3,20.9,158.1,16.7
			c3.6-0.3,11.4-2.2,11.4-12.6c0-16.9,1.3-44.9-0.4-67.5"/>
		<path class="st28" d="M357.6,950.5c-5.3-14-12.9-27.1-23-38.1c-24-26.1-59.6-38.1-95.3-40.7c-1.1-0.1-43-1.7-44.1-1.7"/>
		<path class="st28" d="M358.8,1058.3c3.6-0.3,9-4.1,9-11.3c0-15.2,0.9-33.1-0.8-55.6"/>
		<path class="st31" d="M264.7,628.9L193,838.6c-5.9,19.7,8.9,39.5,29.5,39.5c12.6,0,23.9-7.7,28.6-19.4l45.5-113.6L264.7,628.9z"/>
		<line class="st32" x1="296.6" y1="745.2" x2="269.4" y2="813"/>
		<path class="st34" d="M395,811l25.9-4.6l41.2,10c6.1,1.5,10.7,7.3,11.1,14.2l0.6,9.4l-74.1,0.3L395,811z"/>
		<polygon class="st31" points="394.5,807.9 224.6,814.7 224.6,879.3 400,840.2 		"/>
		<line class="st32" x1="258" y1="813.4" x2="377.2" y2="808.6"/>
		<path class="st34" d="M377.1,559.9c-14.3-9.7-21-23.3-25.4-39.3c-4.1-15-16.1-26.4-20.1-41.5c-4.5-16.9,2.3-35,12.7-49.2
			c17.2-23.5,52.4-30.3,77.3-14.9c17.4,10.8,28.5,30.2,31.6,50.4c1.3,8.5,1.3,17.2,1,25.8c-0.7,24-3.8,49.2-17.9,68.6
			c-1.6,2.2-3.3,4.3-5.5,5.8c-3.6,2.7-8.1,3.7-12.5,4.3C404,571.6,389,568,377.1,559.9"/>
		<path class="st15" d="M427.5,532.3c1.2,0.2,2,1.5,1.4,2.6c-1.8,3.3-5.4,5.7-9.1,6.2c-4.6,0.7-9.4-1.1-13.1-4
			c-3.1-2.5-5.5-5.7-7.4-9.3c-0.4-0.7,0.3-1.5,1-1.3C413.1,530.3,423.2,531.8,427.5,532.3"/>
		<path class="st29" d="M318.6,462.8c0.3-78.4,110-73.9,120.4-74.6c10.4-0.7,21.7,3.6,28,11.7c4.4,5.6,6.1,12.5,5.9,19.1
			s-2.2,12.9-4.9,18.9c-7.5,16.9-22.5,19.7-40.4,27.8c-12.2,5.5-59,17.7-81.8,38.7"/>
		<path class="st34" d="M348.7,485.5c-4.2-5-13-5.2-17.4-0.3c-1.7,1.9-2.7,4.3-3.4,6.8c-1.7,5.6-1.9,11.7-0.8,17.4
			c1.1,5.8,4,11.7,9.1,14.7c5.1,3,12.7,2.1,15.7-3"/>
		<path class="st35" d="M342.3,521.7c-0.8-1-1.9,0.5-1.9,0.5s2.3,3.6,2.4,7.4c0.3,7-10.8,7.1-10.9,0.6c-0.1-4.9,3-7.2,3-7.2
			s-1.1-0.9-1.5-1.4c-1.6,2.1-3.2,4.3-3.5,6.9c-1.3,11.3,12.9,9.9,14.7,4.6C346.2,528.3,344.5,524.5,342.3,521.7"/>
		<path class="st13" d="M346.8,510.7c0.4-1.5-0.1-3-0.6-4.4c-0.5-1.3-1.1-2.5-1.9-3.6c-1.6-2.3-3.7-4.1-6.1-5.4
			c-1.1-0.6-2.1,1.1-1,1.7c2.1,1.1,3.9,2.6,5.3,4.6c0.7,0.9,1.3,2,1.7,3c0.4,1.1,1,2.4,0.7,3.6C344.5,511.4,346.4,511.9,346.8,510.7
			"/>
		<path class="st13" d="M346.3,510.5c2.2-1.5-2.3-4.3-3.4-4.9c-2-1-4.1-1.6-6.4-1.6c-1.2,0-1.2,2,0,1.9c1.6,0,3.2,0.3,4.7,1
			c0.8,0.3,1.5,0.8,2.2,1.3c0.3,0.2,0.6,0.5,0.9,0.7c0.1,0.1,0.3,0.3,0.4,0.4c0.1,0.1,0.2,0.2,0.3,0.3c0.2,0.1-0.2,0.2,0-0.3
			c0.1-0.2,0.3-0.4,0.4-0.6c0,0,0,0-0.1,0c-0.4,0.3-0.6,0.9-0.3,1.3C345.2,510.5,345.9,510.8,346.3,510.5"/>
		<polyline class="st32" points="446.4,616.2 474.5,678.7 459.8,684.1 475.8,698.6 473.7,762.4 		"/>
		<path class="st13" d="M427.9,498.9c0.1,4.9,1.1,9.6,3,14.1c0.5,1.1,1,2.1,1.6,3.2c0.2,0.3,0.9,1.2,1,1.6c0,0.5-0.9,0.9-1.3,1.2
			c-2.3,1.4-4.9,2.6-7.5,3.4c-0.9,0.3-0.5,1.7,0.4,1.4c2.7-0.9,5.2-2,7.6-3.4c0.7-0.4,2.1-1,2.3-2c0.2-1-0.9-2.2-1.4-3
			c-2.8-5-4.2-10.6-4.3-16.4C429.3,498,427.9,498,427.9,498.9"/>
		<path class="st29" d="M453.6,481.8c-6.4-2.6-13.2-4.1-20.1-4.5c-2.3-0.1-2.3,3.5,0,3.6c6.6,0.4,13,1.9,19.2,4.3
			c0.9,0.4,2-0.4,2.2-1.3C455.2,483,454.5,482.1,453.6,481.8"/>
		<path class="st29" d="M411.9,477.3c-8.1-0.2-16.2,1.6-23.4,5.2c-2.1,1-0.3,4.2,1.8,3.1c6.7-3.3,14.1-4.9,21.6-4.7
			C414.3,481,414.3,477.4,411.9,477.3"/>
		<path class="st13" d="M442,503.9L442,503.9c2,0,3.6-1.6,3.6-3.5v-3.8c0-2-1.6-3.5-3.5-3.5H442c-2,0-3.5,1.6-3.5,3.5v3.8
			C438.5,502.3,440,503.9,442,503.9"/>
		<path class="st13" d="M405.3,503.9L405.3,503.9c2,0,3.6-1.6,3.6-3.5v-3.8c0-2-1.6-3.5-3.5-3.5h-0.1c-2,0-3.5,1.6-3.5,3.5v3.8
			C401.7,502.3,403.3,503.9,405.3,503.9"/>
		<path class="st13" d="M1679.8,1343.1c-0.9,0.4-1.8,0.9-2.7,1.3c-0.3,0.1,0,0.5,0.2,0.4c0.9-0.5,1.8-0.9,2.7-1.4
			C1680.2,1343.3,1680,1343,1679.8,1343.1"/>
		<path class="st3" d="M582.7,825.1h210.7c6.3,0,11.6-4.4,12.8-10.6L834.7,665c1.5-8-4.6-15.5-12.8-15.5H611.1
			c-6.3,0-11.6,4.4-12.8,10.6l-28.4,149.5C568.4,817.7,574.6,825.1,582.7,825.1"/>
		<path class="st36" d="M598.3,660.1c0.6-3.4,2.6-6.2,5.2-8.1c3.9,2.8,6.2,7.8,5.2,13l-28.4,149.5c-0.6,3.4-2.6,6.2-5.2,8.1
			c-3.9-2.8-6.2-7.8-5.2-13L598.3,660.1z"/>
		<path class="st3" d="M454.7,839.9h323.9c8.2,0,14.8-6.6,14.8-14.8H439.9C439.9,833.3,446.5,839.9,454.7,839.9"/>
		<path class="st36" d="M439.9,825.1h136.3c0,8.2-7.5,14.8-16.8,14.8H456.7C447.4,839.9,439.9,833.3,439.9,825.1"/>
		<line class="st37" x1="576.3" y1="825.1" x2="692.2" y2="825.1"/>
		<line class="st37" x1="721.3" y1="825.1" x2="793.5" y2="825.1"/>
		<path class="st15" d="M692,737.3c0,8.3,6.7,15,15,15c8.3,0,15-6.7,15-15c0-8.3-6.7-15-15-15C698.7,722.4,692,729.1,692,737.3"/>
		<path class="st3" d="M1464.8,825.1h-210.7c-6.3,0-11.6-4.4-12.8-10.6L1212.9,665c-1.5-8,4.6-15.5,12.8-15.5h210.7
			c6.3,0,11.6,4.4,12.8,10.6l28.4,149.5C1479.1,817.7,1473,825.1,1464.8,825.1"/>
		<path class="st36" d="M1449.2,660.1c-0.6-3.4-2.6-6.2-5.2-8.1c-3.9,2.8-6.2,7.8-5.2,13l28.4,149.5c0.6,3.4,2.6,6.2,5.2,8.1
			c3.9-2.8,6.2-7.8,5.2-13L1449.2,660.1z"/>
		<path class="st3" d="M1592.8,839.9h-323.9c-8.2,0-14.8-6.6-14.8-14.8h353.6C1607.6,833.3,1601,839.9,1592.8,839.9"/>
		<line class="st37" x1="1254.1" y1="825.1" x2="1370" y2="825.1"/>
		<line class="st37" x1="1399.1" y1="825.1" x2="1471.3" y2="825.1"/>
		<path class="st36" d="M1607.6,825.1h-136.3c0,8.2,7.5,14.8,16.8,14.8h102.7C1600.1,839.9,1607.6,833.3,1607.6,825.1"/>
		<path class="st15" d="M1350.4,737.3c0,8.3-6.7,15-15,15s-15-6.7-15-15c0-8.3,6.7-15,15-15S1350.4,729.1,1350.4,737.3"/>
		<polygon class="st13" points="379.4,893.8 328.9,878.1 320.7,955.1 374.4,926.8 		"/>
		<polygon class="st38" points="320.7,955.1 269.4,1433.6 297,1433.6 374.4,926.8 		"/>
		<polygon class="st38" points="1334.7,958.4 1283.7,1433.6 1311.3,1433.6 1387.8,932.8 		"/>
		<polygon class="st13" points="1393.7,893.8 1343.3,878.1 1334.7,958.4 1387.8,932.8 		"/>
		<polygon class="st13" points="1678.5,878.1 1628.1,893.8 1637.4,954.6 1683.6,924.9 		"/>
		<polygon class="st38" points="1637.4,954.6 1710.5,1433.6 1738.1,1433.6 1683.6,924.9 		"/>
		<polygon class="st13" points="634.1,878.1 583.7,893.8 593.3,957 640.1,933.4 		"/>
		<polygon class="st38" points="593.3,957 666.1,1433.6 693.7,1433.6 640.1,933.4 		"/>
		<rect x="244" y="841" class="st15" width="1522.4" height="58.7"/>
		<rect x="244" y="841" class="st39" width="432.4" height="58.7"/>
		<line class="st40" x1="676.4" y1="841" x2="676.4" y2="899.7"/>
		<line class="st37" x1="528.2" y1="899.7" x2="755.9" y2="899.7"/>
		<line class="st37" x1="797.4" y1="899.7" x2="922.1" y2="899.7"/>
		<line class="st37" x1="948.3" y1="899.2" x2="1463.6" y2="899.2"/>
		<line class="st37" x1="1488.9" y1="899.7" x2="1706.5" y2="899.7"/>
		<line class="st37" x1="1571.4" y1="839.9" x2="1689.9" y2="839.9"/>
		<line class="st37" x1="1303.5" y1="839.9" x2="778.6" y2="839.9"/>
		<line class="st37" x1="745.1" y1="840.2" x2="301" y2="840.2"/>
		<polyline class="st37" points="274.8,840.9 244,840.9 244,899.7 484.4,899.7 		"/>
		<path class="st41" d="M566.6,841.9c0,0-0.1,0.2-0.5,0.6c-0.4,0.4-0.9,1-1.6,1.8c-1.5,1.4-3.9,3.5-7.7,5.4
			c-3.7,1.9-8.7,3.5-14.7,4.3c-6,0.9-12.9,1-20.5,0.8c-7.6-0.2-15.9-1.2-24.7-2.5c-8.8-1.2-18.2-2.7-28.1-3
			c-20-0.6-41.6,4-63.3,10.8c-21.7,6.8-42,14.6-61.4,19.4c-9.7,2.4-19.1,4.1-28,4.9c-8.9,0.8-17.3,0.7-24.9,0
			c-15.2-1.5-26.9-5.8-34.1-9.6c-7.3-3.9-10.6-7-10.6-7c0,0,0.3,0.1,0.7,0.4c0.5,0.4,1.2,0.8,2,1.3c1.8,1.2,4.5,2.8,8.2,4.7
			c7.3,3.7,18.9,7.7,33.9,9c7.5,0.6,15.8,0.7,24.6-0.2c8.8-0.9,18.1-2.6,27.7-5c19.2-4.8,39.5-12.6,61.3-19.5
			c21.8-6.9,43.7-11.5,64-10.8c10.1,0.3,19.5,1.9,28.3,3.1c8.8,1.3,17,2.4,24.5,2.7c7.5,0.3,14.4,0.3,20.3-0.5
			c5.9-0.7,10.8-2.3,14.5-4C563.9,845.5,566.3,841.6,566.6,841.9"/>
		<path class="st41" d="M400,842.7c0.1,0.1-1.6,1.3-4.6,3.5c-3.1,2.1-7.8,4.9-13.9,7.9c-6.2,2.8-13.8,5.9-22.7,8.1
			c-8.9,2.2-19,3.8-29.7,4.1c-21.5,0.7-40.6-4.2-53.1-9.7c-6.3-2.8-10.6-6.3-12.8-9.2c-1.1-1.4-1.7-2.7-2.1-3.5
			c-0.3-0.9-0.4-1.3-0.4-1.3c0.2-0.1,0.7,1.8,3.1,4.5c2.3,2.7,6.6,5.9,12.8,8.6c12.4,5.1,31.3,9.7,52.4,9
			c10.5-0.3,20.5-1.8,29.3-3.9c8.8-2.1,16.4-5,22.6-7.7c6.1-2.8,10.9-5.4,14.1-7.4C398.1,843.7,399.9,842.7,400,842.7"/>
		<path class="st41" d="M757.3,879.9c0,0,0.8,0.2,2.4,0.8c1.6,0.5,3.9,1.2,7,1.6c6.1,0.9,16.1,1.2,26.6-3.7l-0.1,0.7
			c-8-5.5-19.4-10.3-33-11.3c-13.5-1.1-29.5,1.4-43,9.8c-1.6,1-3.2,2.3-3.3,3.8c-0.2,1.5,1.1,2.9,2.9,3.8c1.8,0.9,3.8,1.4,5.9,1.8
			c2.1,0.4,4.3,0.9,6.5,1.3c8.7,1.7,17.7,3.4,27,4.6c9.3,1.2,18.9,2,28.7,1.7c4.9-0.1,9.8-0.5,14.8-1.2c2.5-0.4,4.9-0.8,7.3-1.4
			c2.5-0.5,4.8-1.1,7.1-2c3.6-1.4,6.9-3.3,9.2-5.9c2.3-2.6,3.1-6,1.8-9c-1.2-3-4.2-5.3-7.2-7.1c-3.1-1.8-6.6-3.1-10.1-4.4
			c-14-4.9-28.5-7-42.3-7.7c-27.7-1.4-52.7,3.3-72.2,9.9c-19.6,6.6-34.1,14.7-43.5,20.9c-4.6,3.2-8.2,5.7-10.5,7.5
			c-1.1,0.8-2,1.5-2.7,2c-0.6,0.4-0.9,0.7-1,0.6c0,0,0.3-0.3,0.8-0.8c0.6-0.5,1.5-1.2,2.6-2.1c2.2-1.9,5.7-4.5,10.3-7.8
			c9.3-6.4,23.7-14.7,43.4-21.5c19.6-6.8,44.8-11.6,72.8-10.3c13.9,0.7,28.6,2.8,42.9,7.7c3.5,1.2,7.1,2.6,10.4,4.5
			c3.3,1.9,6.5,4.4,8,7.9c1.6,3.5,0.6,7.7-2,10.6c-2.6,2.9-6.2,4.9-10,6.4c-2.4,0.9-4.9,1.6-7.4,2.1c-2.5,0.6-5,1-7.5,1.4
			c-5,0.7-10,1.2-15,1.3c-10,0.3-19.7-0.5-29.1-1.8c-9.4-1.2-18.4-3-27.1-4.7c-2.2-0.4-4.3-0.9-6.5-1.3c-2.1-0.4-4.4-1-6.4-2
			c-1-0.5-2-1.2-2.7-2.1c-0.7-0.9-1.1-2.1-1-3.2c0.3-2.3,2.4-3.7,4-4.8c13.9-8.6,30.3-11.1,44.1-9.9c13.9,1.2,25.5,6.2,33.5,11.8
			l0.6,0.4l-0.7,0.3c-10.9,4.9-21,4.4-27.2,3.3C760.2,881.6,757.3,879.9,757.3,879.9"/>
		<path class="st41" d="M953.2,843.4c0.1,0,0.8,1,1.5,3c0.7,2,1.4,5,1,8.8c-0.5,7.6-5.8,17.5-14.8,25.6c-4.4,4.2-9.1,7.7-13.9,10.4
			c-4.7,2.7-9.4,4.5-13.4,5.7c-4,1.2-7.4,1.8-9.7,2.1c-2.3,0.3-3.6,0.4-3.6,0.3c-0.1-0.3,5.1-0.9,12.9-3.5c3.9-1.3,8.3-3.2,12.9-5.9
			c4.5-2.7,9.1-6.1,13.4-10.2c8.9-8,14.1-17.4,14.9-24.6C955.4,847.8,952.7,843.5,953.2,843.4"/>
		<path class="st41" d="M1226.6,896.6c-0.2,0.1-2.1-2.5-7-6c-4.8-3.5-12.7-7.9-23.8-9.5c-5.5-0.8-11.6-0.6-18.1,0.5
			c-6.5,0.9-13.6,2.4-21.2,1.7c-7.8-0.6-14.8-4.8-21.2-9.1c-6.4-4.5-13.2-8.7-21.3-11.1c-16.1-5.1-33.1-4.2-47.2-0.6
			c-14.3,3.6-25.9,9.8-34.9,15.6c-9.1,5.9-15.7,11.4-20.2,15.2c-2.1,1.9-3.9,3.4-5.2,4.5c-1.2,1-1.8,1.6-1.9,1.5
			c0,0,0.5-0.6,1.6-1.7c1.1-1.1,2.7-2.7,4.9-4.7c4.4-4,10.9-9.7,20-15.7c9-5.9,20.7-12.4,35.2-16.1c14.4-3.7,31.8-4.7,48.3,0.6
			c8.3,2.5,15.5,6.9,21.7,11.4c6.3,4.4,12.9,8.3,20.2,8.9c7.3,0.7,14.2-0.7,20.8-1.6c6.6-1,13-1.2,18.6-0.3
			c11.3,1.7,19.4,6.5,24.1,10.1C1224.8,893.8,1226.6,896.6,1226.6,896.6"/>
		<path class="st41" d="M1470.7,841.5c0.1,0-0.5,0.7-1.7,2c-1.2,1.2-2.7,3.2-5.2,5.5c-4.6,4.7-12.1,10.8-22.2,17.4
			c-10.1,6.6-23.1,13.3-38.6,18.8c-7.7,2.8-16,5.2-24.9,7c-8.8,1.8-18.2,3.1-27.8,3.2c-19.3,0.1-37.4-4.1-52.8-9.7
			c-15.4-5.6-28.3-12.5-38.4-19.2c-10-6.7-17.4-12.9-22.1-17.6c-2.4-2.2-4-4.2-5.2-5.4c-1.1-1.3-1.7-2-1.7-2c0,0,0.7,0.6,2,1.8
			c1.3,1.2,2.9,3.1,5.5,5.2c4.8,4.5,12.3,10.6,22.3,17.1c10.1,6.5,22.9,13.2,38.2,18.7c15.2,5.4,33.1,9.5,52.1,9.4
			c9.5,0,18.7-1.4,27.4-3.1c8.7-1.7,17-4.1,24.6-6.8c15.3-5.4,28.3-12,38.4-18.4c10.2-6.4,17.7-12.4,22.5-16.9
			c2.5-2.1,4.2-4.1,5.4-5.2C1469.9,842.1,1470.6,841.5,1470.7,841.5"/>
		<path class="st41" d="M1435.8,841c0,0-0.4,0.4-1.3,0.9c-0.9,0.5-2.2,1.4-3.9,2.4c-3.5,2-8.6,4.7-15.2,7.6
			c-6.6,2.9-14.7,6.1-24.1,8.6c-9.3,2.6-20,4.7-31.4,4.7c-22.9-0.1-42.6-6.7-55.8-12.4c-6.6-2.9-11.7-5.7-15.1-7.8
			c-1.7-1-3-1.9-3.8-2.5c-0.9-0.6-1.3-0.9-1.3-1c0.1-0.1,2,1,5.5,2.9c3.5,1.9,8.7,4.5,15.3,7.3c13.2,5.4,32.8,11.7,55.2,11.8
			c11.1,0,21.7-2.1,30.9-4.5c9.3-2.5,17.4-5.5,24-8.2c6.6-2.8,11.9-5.3,15.4-7.1C1433.7,841.9,1435.7,840.9,1435.8,841"/>
		<path class="st41" d="M1590.6,847c0,0.1-0.6,0.1-1.8,0c-1.4-0.1-3-0.2-5-0.3c-1.1-0.1-2.3-0.2-3.6-0.2c-1.3,0-2.8,0-4.3,0
			c-3.1,0-6.6-0.1-10.4,0.2c-1.9,0.1-4,0.2-6.1,0.3c-2.1,0.2-4.3,0.4-6.5,0.7c-4.5,0.3-9.3,1.3-14.3,2c-10,1.9-20.8,4.6-31.8,8.4
			c-11,3.9-21,8.4-29.8,12.9c-4.3,2.4-8.5,4.6-12.1,7c-1.8,1.2-3.6,2.3-5.3,3.4c-1.6,1.2-3.2,2.3-4.7,3.4c-3.1,2.1-5.6,4.2-7.9,6
			c-1.1,0.9-2.2,1.7-3.2,2.5c-0.9,0.8-1.7,1.6-2.5,2.3c-1.4,1.2-2.6,2.3-3.5,3.1c-0.8,0.7-1.3,1.1-1.3,1c0,0,0.3-0.5,1-1.2
			c0.9-0.9,2-2,3.3-3.3c0.7-0.7,1.5-1.5,2.4-2.4c1-0.8,2-1.7,3.1-2.7c2.2-1.9,4.7-4.1,7.8-6.3c1.5-1.1,3.1-2.3,4.7-3.5
			c1.7-1.1,3.5-2.3,5.3-3.5c3.6-2.5,7.8-4.7,12.1-7.2c8.8-4.7,19-9.3,30-13.2c11.1-3.8,22.1-6.5,32.2-8.3c5.1-0.7,9.9-1.6,14.5-1.9
			c2.3-0.2,4.5-0.4,6.6-0.6c2.1-0.1,4.2-0.1,6.1-0.2c3.9-0.2,7.4,0,10.5,0.1c1.5,0.1,3,0.1,4.3,0.2c1.3,0.1,2.5,0.3,3.6,0.4
			c2,0.2,3.6,0.4,5,0.6C1590,846.8,1590.6,846.9,1590.6,847"/>
		<path class="st41" d="M1654.5,841.1c-0.7,2.5-1.8,5.8-3.7,9.5c-4.4,8.9-14.1,19.8-28.2,27.9c-14.2,8.1-28.9,12.3-39.4,15.3
			c-5,1.4-9.2,2.5-12.6,3.4c-3,0.8-4.6,1.3-4.6,1.4c0,0.1,1.7-0.2,4.8-0.8c3-0.6,7.4-1.6,12.8-2.9c10.6-2.7,25.6-6.8,40-15.1
			c14.4-8.2,24.2-19.6,28.4-28.8c1.8-3.9,2.9-7.4,3.3-10H1654.5z"/>
		<path class="st41" d="M1253.9,895.4c-0.2,0.1-2.3-3.6-8.4-8.8c-6-5.1-16.3-11.2-30.7-15.1c-7.1-2-15.2-3.5-23.9-4.7
			c-8.7-1.2-18.1-2.2-28-3.7c-9.9-1.4-20-3.9-30.4-6.7c-10.4-2.7-21.1-5.7-32.4-6.9c-22.7-2.5-44.7,1.7-63.2,7.7
			c-9.3,3-17.8,6.6-25.7,10.2c-7.9,3.6-15.1,7.1-21.6,10.3c-13.1,6.5-23.5,12.1-30.7,16c-3.5,1.9-6.2,3.4-8.3,4.5
			c-0.9,0.5-1.6,0.8-2.2,1.1c-0.5,0.3-0.8,0.4-0.8,0.3c0,0,0.2-0.2,0.7-0.5c0.6-0.3,1.2-0.8,2.1-1.3c1.8-1.1,4.5-2.7,8.1-4.7
			c7.1-4,17.4-9.8,30.5-16.4c6.5-3.3,13.7-6.9,21.6-10.5c7.9-3.6,16.4-7.3,25.8-10.4c18.6-6.1,40.9-10.5,64-7.9
			c11.5,1.3,22.4,4.2,32.7,7c10.4,2.8,20.4,5.3,30.2,6.8c9.8,1.5,19.2,2.5,27.9,3.8c8.8,1.3,16.9,2.8,24.1,4.9
			c14.5,4.1,24.9,10.4,30.8,15.8C1252,891.5,1253.9,895.4,1253.9,895.4"/>
		<path class="st41" d="M911,841.9c0.1,0,0.1,1.3-0.2,3.7c-0.3,2.4-1.2,5.8-3,9.9c-3.5,8-10.7,18.9-23.4,26.4
			c-12.7,7.2-25.5,11.3-34.7,14.1c-4.6,1.4-8.4,2.3-11.1,2.9c-2.6,0.6-4.1,0.9-4.2,0.8c0-0.1,1.4-0.6,3.9-1.4
			c2.9-0.9,6.6-2.1,10.8-3.4c9.1-3,21.7-7.3,34.1-14.4c12.2-7.2,19.5-17.7,23.2-25.5C910.4,847.2,910.6,841.8,911,841.9"/>
		<path class="st41" d="M557.6,899.7c-0.1-0.1,1.2-1.2,3.7-3.1c2.4-2,6.1-4.6,10.8-7.8c9.4-6.4,23-14.4,38.8-22.1
			c15.8-7.7,30.6-13.8,41.3-18.1c5.4-2.2,9.7-3.9,12.8-5c3-1.1,4.7-1.7,4.8-1.6c0.1,0.1-1.5,0.9-4.5,2.2c-3.3,1.4-7.5,3.3-12.5,5.5
			c-10.6,4.6-25.2,10.9-41,18.5c-15.7,7.6-29.4,15.4-38.9,21.5c-4.8,3-8.6,5.6-11.2,7.4C559.1,898.8,557.7,899.8,557.6,899.7"/>
		<path class="st41" d="M629.3,844.3c0,0.2-3.5-0.4-9.8,0c-6.3,0.4-15.3,2.3-25.4,6.8c-10.2,4.4-20.9,11.6-33,19.5
			c-6.1,3.9-12.6,7.9-19.9,11.3c-7.3,3.4-15.3,6.1-23.8,8.1c-16.9,3.8-33.6,4.7-48.6,5.2c-15.1,0.4-28.6,0.1-39.9,0.5
			c-11.3,0.4-20.4,1.3-26.7,2.3c-3.1,0.5-5.5,0.9-7.2,1.3c-1.6,0.3-2.5,0.5-2.5,0.4c0-0.1,0.8-0.3,2.4-0.7c1.6-0.4,4-1,7.1-1.6
			c6.2-1.2,15.4-2.3,26.8-2.8c11.4-0.6,24.9-0.4,39.9-0.9c15-0.5,31.5-1.4,48.2-5.2c8.3-2,16.2-4.5,23.4-7.9
			c7.2-3.3,13.6-7.3,19.7-11.2c12.1-7.8,23-15,33.4-19.3c10.3-4.5,19.6-6.2,25.9-6.4c3.2-0.1,5.7,0,7.3,0.2
			C628.4,844.1,629.3,844.2,629.3,844.3"/>
		<path class="st10" d="M1578.8,840.8c0,0.5-63.6,0.8-142.1,0.8c-78.5,0-142.1-0.4-142.1-0.8c0-0.5,63.6-0.8,142.1-0.8
			C1515.2,839.9,1578.8,840.3,1578.8,840.8"/>
		<path class="st12" d="M1941.4,970.5c13-119,23.1-252.8,26.7-298.7c0.7-8.9,1.2-17.7,1.7-26.6c0.3-5.4,0.4-11-1.8-15.9
			c-4-9.1-14.3-13.4-23.9-15.8c-11.7-2.9-123.7-4.7-177-5.4c-15.9-0.2-29.4,11.6-31.4,27.4l-40.1,363.2L1941.4,970.5"/>
		<path class="st15" d="M1832.2,1389.6h-33.4v-336.3h-26.3v336.3H1739c-24.3,0-44,19.7-44,44h181.1
			C1876.1,1409.3,1856.4,1389.6,1832.2,1389.6"/>
		<path class="st27" d="M1832.2,1389.6h-33.4v-336.3h-26.3v336.3H1739c-24.3,0-44,19.7-44,44h181.1
			C1876.1,1409.3,1856.4,1389.6,1832.2,1389.6z"/>
		<polygon class="st13" points="1798.8,1053.3 1772.4,1053.3 1772.4,1120.5 1798.8,1099 		"/>
		<line class="st27" x1="1781.5" y1="1389.6" x2="1801" y2="1389.6"/>
		<path class="st12" d="M1621.2,1067.6H1767c6.7,0,12.1-5.4,12.1-12.1c0-6.7-5.4-12.1-12.1-12.1h-145.8c-6.7,0-12.1,5.4-12.1,12.1
			C1609.1,1062.1,1614.5,1067.6,1621.2,1067.6"/>
		<path class="st17" d="M1746.9,1067.6h20.1c6.7,0,12.1-5.4,12.1-12.1c0-6.7-5.4-12.1-12.1-12.1h-20.1c-6.7,0-12.1,5.4-12.1,12.1
			C1734.8,1062.1,1740.2,1067.6,1746.9,1067.6"/>
		<path class="st28" d="M1747.3,1067.6h19.7c6.7,0,12.1-5.4,12.1-12.1c0-6.7-5.4-12.1-12.1-12.1h-19.7c-6.7,0-12.1,5.4-12.1,12.1
			C1735.2,1062.1,1740.6,1067.6,1747.3,1067.6z"/>
		<path class="st12" d="M1763.1,867.2c-4,47.4-9.5,101.7-18.1,148c-2.5,13.3-6,27.9-17.1,35.6c-4.6,3.2-106.3,20.9-158.1,16.7
			c-3.6-0.3-6.5-3-6.9-6.6c-1.9-15.2-6.3-55.6-3.7-77.6c3.3-27.4,13.3-54.5,31.9-74.8c28.4-30.9,73.1-42,115.1-41.2L1763.1,867.2z"
			/>
		<path class="st13" d="M1744.7,891.8c7.5-6,8.4-15.3,8.3-24.6l-46.9,0c-9-0.2-18.2,0.2-27.3,1.2
			C1696.8,885.2,1719.9,911,1744.7,891.8"/>
		<path class="st28" d="M1568.1,946.6c5.3-14,12.9-27.1,23-38.1c24-26.1,59.5-38.1,95.3-40.7c1.1-0.1,43-1.7,44.1-1.7"/>
		<path class="st28" d="M1777.8,691.5c-6.8,109.4-24.2,277.4-32.8,323.7c-2.5,13.3-6,27.9-17.1,35.6c-4.6,3.2-106.3,20.9-158.1,16.7
			c-3.6-0.3-6.5-3-6.9-6.6c-1.8-14.3-5.8-50.9-4.1-73.4"/>
		<path class="st28" d="M1964.9,624.4c-2.7-3.3-7.7-3.9-11.7-2.3c-3.9,1.6-6.9,4.9-9.3,8.5c-10.5,15.8-22.5,216.6-22.3,235.5"/>
		<path class="st42" d="M1704.6,471.9c0,45.1,36.6,81.7,81.7,81.7c45.1,0,81.7-36.6,81.7-81.7c0-45.1-36.6-81.7-81.7-81.7
			C1741.1,390.2,1704.6,426.8,1704.6,471.9"/>
		<path class="st42" d="M1852.5,464.8c25.3,32.4,55.3,42.1,73.8,71.2c4.3,6.7,8.2,13.8,9.6,21.5c1.5,7.9,0.2,16.3-3.6,23.4
			c-3.8,7.2-11.6,13.5-19.6,11.6c2.8,5.4,0.6,12.2-3.3,16.9c-8.9,10.6-25.2,12.5-38.3,7.9c-13.1-4.7-38.1-19.8-64.8-48.2
			c-16.7-17.8-34.8-70.7-25-95.3"/>
		<path class="st13" d="M1870.2,485c13.7,8,26.9,16.9,38.8,27.5c11.8,10.5,22.5,22.7,30,36.6c4.4,8.2,7.5,18.5,2.9,27.3
			c-0.7,1.4,1.4,2.7,2.2,1.3c4-7.8,2.9-16.8-0.4-24.6c-3.3-7.7-8.1-14.9-13.3-21.5c-10-12.9-22.3-24-35.5-33.6
			c-7.6-5.5-15.4-10.5-23.5-15.2C1870,482.1,1868.8,484.2,1870.2,485"/>
		<path class="st13" d="M1938.3,559.6c2,12.5-3,25.7-12.5,34c-1.2,1.1,0.6,2.8,1.8,1.8c10.3-8.9,15.3-23,13.2-36.5
			C1940.5,557.3,1938.1,558,1938.3,559.6"/>
		<path class="st13" d="M1861.5,480.1c13.9,6.4,27.5,13.6,40.4,21.8c12.8,8.2,24.9,17.4,35.8,28.1c6.1,6,11.9,12.4,17,19.3
			c1,1.3,3.1,0,2.2-1.3c-9.3-12.3-20.2-23.2-32.2-32.9c-12-9.6-25-18-38.5-25.4c-7.7-4.2-15.5-8.1-23.5-11.8
			C1861.3,477.3,1860,479.4,1861.5,480.1"/>
		<line class="st43" x1="1857.9" y1="924.4" x2="1819.7" y2="962.2"/>
		<path class="st35" d="M1673.4,625l-52.9,194.4c-2.3,11.8,4.4,23.5,15.8,27.5c15.2,5.3,27.1-4.7,32.2-21.3l15.6-40.5L1673.4,625z"
			/>
		<path class="st34" d="M1560.2,704.8c0,0,59.5,130,67.9,135.3c8.4,5.4,44-10.2,28-45.7l-79.3-115.9L1560.2,704.8z"/>
		<line class="st44" x1="1662.1" y1="800.8" x2="1635.5" y2="764.2"/>
		<polygon class="st15" points="1860,915.5 1862.1,842.5 1905.2,630.7 1790.2,579.4 1673.4,625 1695.6,914.9 		"/>
		<path class="st28" d="M1780.8,783.4c-26.9-8.4-50.4-7-67.4-6.5"/>
		<polygon class="st34" points="1764.1,698.2 1828.1,596.1 1828.1,513.6 1765.3,513.6 		"/>
		<polygon class="st15" points="1764.1,697.7 1750,625.7 1764.9,579.4 		"/>
		<polygon class="st15" points="1764.1,697.7 1784,629.7 1831,582.9 1829.9,595.5 		"/>
		<polygon class="st15" points="1750,625.7 1728.5,631.7 1749.4,588.7 1764.9,579.4 		"/>
		<line class="st45" x1="1762.1" y1="588.1" x2="1754.2" y2="612.8"/>
		<polyline class="st45" points="1745.7,596.4 1728.5,631.7 1750,625.7 1757.5,662.3 		"/>
		<polygon class="st15" points="1784,629.7 1814,647.5 1844,597.4 1830,580.3 		"/>
		<line class="st45" x1="1825.4" y1="628.4" x2="1844" y2="597.4"/>
		<polyline class="st45" points="1820.9,635.9 1814,647.5 1784,629.7 1777.7,649 		"/>
		<path class="st13" d="M1765.3,513.6h62.8v30.8l-33.9,32.1c-7.8,7.4-18.6,6.2-25.3-3l-3.5-4.8V513.6z"/>
		<path class="st35" d="M1715.3,938.1c16-1.2-15.3-171.9-15.3-171.9l32.4-165.7l-59,24.5l0,134.8l19,160.6
			C1692.3,920.4,1703.3,939,1715.3,938.1"/>
		<path class="st33" d="M1350.6,1245.9c0,0-34.1,8.5-33.3,15.9c0.8,7.4,18.8,23.2,38.8,25.2c19.9,2,46.2-41.9,66.3-42.6
			c18.8-0.6,14.4-37.5,5.7-43.9c-8.7-6.4-22.4-7-22.4-7S1391.1,1231.9,1350.6,1245.9"/>
		<path class="st34" d="M1401.7,1195c0,0-6.3,13.9-15.2,23.8c-9,10-37.8,25-42.1,28.7c-2.8,2.4,11.9,11.4,24.8,7.6
			c12.9-3.8,30.1-18.2,43.1-27.8c13.8-10.1,14.9-25.7,14.9-25.7L1401.7,1195z"/>
		<polygon class="st33" points="1431.3,1236.9 1410.9,1277.6 1403.8,1274.1 1415.9,1243.6 		"/>
		<path class="st33" d="M1760.2,1020.6c-67.9-7.4-135.1-8.1-203.4-10.1l-0.7,42.9c-0.1,6.1-2.3,12-6.3,16.9L1435.2,1209l-35.8-11.7
			c31.7-78.7,63.4-157.5,95.1-236.2c3.8-9.3,7.9-19.2,16.4-25.2c5.8-4.1,13-5.9,20.1-7.5c64.7-15.3,240.5-32.2,306.9-38
			L1760.2,1020.6z"/>
		<path class="st33" d="M1547.1,1412.9c0,0-26.6,22.9-22.6,29.2c4,6.2,27.2,12.3,45.9,5.1c18.7-7.1,22.5-58.1,40.2-67.8
			c16.6-9-3.9-40-14.6-41.8c-10.7-1.8-23.2,3.8-23.2,3.8S1577.1,1382.2,1547.1,1412.9"/>
		<path class="st34" d="M1570,1344.5c0,0,0.6,15.2-2.9,28.1c-3.6,12.9-22.6,39.2-24.8,44.6c-1.4,3.4,15.7,4.8,25.5-4.4
			c9.8-9.2,18.7-29.8,26.1-44.1c7.8-15.2,1.8-29.7,1.8-29.7L1570,1344.5z"/>
		<polygon class="st33" points="1615.2,1368.8 1615.2,1414.3 1607.4,1414.3 1604.5,1381.6 		"/>
		<path class="st33" d="M1799.3,1040c-74.6,15.6-174.6,36.6-174.6,36.6c7.6,11.5,12,44.7,12,44.7S1616,1271,1600.9,1338l-32.8,7.1
			c0,0-18.7-204.2-19-302.6c0-13.9,1.5-30.3,14.2-37.5l306.8-106.1l10.3,31.6C1887.8,981.3,1852.5,1028.9,1799.3,1040"/>
		<line class="st28" x1="1594.9" y1="998.7" x2="1746.7" y2="1021"/>
		<path class="st28" d="M1526.1,1099l19.1-23c3.8-4.6,5.8-10.5,5.5-16.5c-0.9-16.1-1-48.6,12.6-54.5l18-6.2"/>
		<polyline class="st28" points="1719.6,606.2 1688.6,675.2 1703.8,680.9 1687.2,695.9 1692.9,781.4 		"/>
		<polyline class="st28" points="1690.8,905.1 1673.3,759.8 1678.5,702.8 		"/>
		<path class="st35" d="M1887.9,930.1l-25.8-87.5l43.1-211.9l-53.4-25.8l-81.3,171.6c0,0,4.9,158.1,39.5,186.3
			C1844.7,991,1887.9,930.1,1887.9,930.1"/>
		<path class="st12" d="M1952,867.2c-4,47.4-9.5,101.7-18.1,148c-2.5,13.3-6,27.9-17.1,35.6c-4.6,3.2-106.3,20.9-158.1,16.7
			c-3.6-0.3-11.4-3.6-11.4-12.6c0-18.5-1.8-49.7,0.8-71.6c3.3-27.4,13.3-54.5,31.9-74.8c28.4-30.9,73.1-42,115.1-41.2L1952,867.2z"
			/>
		<path class="st13" d="M1933.7,891.8c7.6-5.9,8.4-15.3,8.3-24.6l-46.9,0c-9-0.2-33.9,1-49.3,5l44,9.5
			C1902.3,898.6,1919.4,902.9,1933.7,891.8"/>
		<path class="st28" d="M1757,946.6c5.3-14,12.9-27.1,23-38.1c24-26.1,59.5-38.1,95.3-40.7c1.1-0.1,43-1.7,44.1-1.7"/>
		<path class="st28" d="M1966.7,691.5c-6.8,109.4-24.2,277.4-32.8,323.7c-2.5,13.3-6,27.9-17.1,35.6c-4.6,3.2-106.3,20.9-158.1,16.7
			c-3.6-0.3-11.4-2.2-11.4-12.6c0-16.9-1.3-44.9,0.4-67.5"/>
		<path class="st28" d="M1780.3,959.8c5.3-14,12.9-27.1,23-38.1c24-26.1,59.6-38.1,95.3-40.7c1.1-0.1,43-1.7,44.1-1.7"/>
		<path class="st28" d="M1779.1,1067.6c-3.6-0.3-9-4.1-9-11.3c0-15.2-0.9-33.1,0.8-55.6"/>
		<polyline class="st28" points="1863.3,610.4 1843.9,681.4 1825.1,685.9 1840.2,702.1 1776.4,776 		"/>
		<path class="st35" d="M1868.5,761.4l27.6,106.9c4.1,16.1,21.7,24.6,36.8,17.7c11.4-5.2,17.7-17.7,15-29.9
			c-4.3-19.9-10.7-57.7-14.3-76.5c-9.5-49.6-18.9-99.3-28.4-148.9L1868.5,761.4z"/>
		<line class="st44" x1="1881.4" y1="713.6" x2="1869.4" y2="804.6"/>
		<path class="st34" d="M1840.3,792.5l-15.3-12.8c-3.5-3.1-11.8-5.4-11.8-5.4l1.1,10.3L1840.3,792.5z"/>
		
			<rect x="1700.1" y="719.9" transform="matrix(0.9931 -0.1175 0.1175 0.9931 -82.0757 212.235)" class="st15" width="116.7" height="164.2"/>
		<polyline class="st44" points="1813.1,767.6 1806.8,713.6 1730.9,722.6 		"/>
		<polyline class="st44" points="1743.2,886.5 1826.1,876.7 1822.4,845.4 		"/>
		<polyline class="st44" points="1713.4,724.7 1690.8,727.4 1710.1,890.4 		"/>
		<path class="st34" d="M1821.3,827.1l19,1.1c19,14.7,47.2,38.2,64.9,54.3c0,0,45.6-7.7-0.7-62.9c0,0-48.7-21-79.5-34
			c-1.8-0.8-3.8-1.1-5.7-0.9l-49.9,5c-3.4,0.3-5.4,4-3.8,7.1c0.8,1.5,2.3,2.4,4,2.5l0.8,0.3c0,0,2,1.2,6,8.9c1.1,2.2,3,3.9,5.3,4.7
			c9,3.4,27.6,10,35.6,13C1818.6,826.7,1820,827,1821.3,827.1"/>
		<path class="st44" d="M1915,833.6c-2.8-4.3-6.3-8.9-10.5-14c0,0-51.3-22-79.5-34"/>
		<path class="st44" d="M1911.7,880.5c6.9-3.1,16.4-10.4,12.8-26.3"/>
		<path class="st44" d="M1781.7,813.3c9,3.4,27.6,10,35.6,13c1.3,0.5,2.6,0.8,4,0.8l19,1.1c4.8,3.7,10.1,8,15.8,12.5"/>
		<path class="st34" d="M1579.9,655l-10.3-46.3c-0.3-1.6-2-2.4-3.4-1.8c-2.7,1.3-5.4,4.4-4.9,7.4l4.8,42.2l-25.6,11.5l9.1,26.3
			c2.3,6.5,8.4,10.8,15.2,10.8l19.8-32L1579.9,655z"/>
		<path class="st34" d="M1561.5,645.2l-21.5,11.1c-3.1,1.6-4.6,5.3-3.5,8.8l3.6,10.9c1.1,3.3,4.5,5,7.7,4l18-6c2.9-1,4.6-3.9,4.1-7
			l-3.1-19.1C1566.3,645.4,1563.7,644.1,1561.5,645.2"/>
		<path class="st34" d="M1582.5,691.5l9.4-22.3l3-25.5c0.3-2.3-2.2-4.4-4.3-3.5c-1.9,0.8-3.2,2.3-3.8,4.3l-3.8,13.9
			c0,0-21.1,4.1-12.2,28.8"/>
		<path class="st34" d="M1800.3,555.2c14.9-10.1,21.9-24.2,26.4-40.9c4.2-15.6,16.7-27.5,20.9-43.2c4.7-17.6-2.4-36.4-13.2-51.1
			c-17.9-24.5-54.5-31.6-80.4-15.5c-18.1,11.2-29.6,31.4-32.9,52.4c-1.4,8.9-1.3,17.9-1.1,26.8c0.7,24.9,4,51.2,18.7,71.3
			c1.6,2.2,3.4,4.4,5.7,6.1c3.7,2.8,8.4,3.9,13,4.5C1772.4,567.3,1787.9,563.6,1800.3,555.2"/>
		<path class="st13" d="M1748.5,535.4c3,0.2,6.1,0.4,9.1-0.4c4.4-1.2,8.2-3.8,10.9-7.4c0.4-0.5,0.1-1.4-0.5-1.7
			c-0.6-0.4-1.3-0.1-1.7,0.5c-2.4,3.2-6,5.5-10,6.4c-2.6,0.6-5.3,0.4-7.9,0.2C1746.9,532.8,1746.9,535.3,1748.5,535.4"/>
		<path class="st42" d="M1854.2,481.8c13.1-37.8-21.7-69.1-30.1-72.6c1.9-7.7,0.2-14.4-4-21.3c-4-6.5-11.1-11.9-19.3-12.4
			c-8.3-0.5-17.1,5.3-17,12.6c-3.4-9.4-10.6-17.8-20.5-22.2c-9.9-4.4-22.5-4.2-31.6,1.4c-6.3,3.9-10.5,10-12.6,16.5
			c-2.2,6.5-2.4,13.4-2,20.2c1.3,19.2,8.5,38.6,23.1,52.8c10,9.8,22.9,16.8,36.4,22.2c23.8,9.6,51.3,14.4,76.3,7.3"/>
		<path class="st13" d="M1730.3,388.2c0.2,17.7,4.7,35.3,13.1,50.9c2.4,4.4,5.1,8.7,8,12.7c0.9,1.3,3.1,0,2.2-1.3
			c-10.3-14-17.1-30.5-19.7-47.7c-0.7-4.8-1.1-9.7-1.1-14.6C1732.8,386.6,1730.3,386.6,1730.3,388.2"/>
		<path class="st13" d="M1745.4,414.1c4.6,16.8,11.3,33,19.9,48.1c0.8,1.4,3,0.1,2.2-1.3c-8.5-14.9-15.1-30.9-19.6-47.5
			C1747.4,411.9,1745,412.6,1745.4,414.1"/>
		<path class="st13" d="M1765.9,443c1.9,5.5,4.3,10.7,7.1,15.7c0.8,1.4,3,0.1,2.2-1.3c-2.8-4.8-5.1-9.9-6.9-15.1
			C1767.8,440.8,1765.4,441.4,1765.9,443"/>
		<path class="st34" d="M1829.8,477.7c4.4-5.2,13.5-5.4,18.1-0.3c1.8,2,2.8,4.5,3.6,7.1c1.7,5.9,2,12.1,0.8,18.1
			c-1.2,6.1-4.2,12.1-9.5,15.3c-5.3,3.1-13.2,2.2-16.4-3.2"/>
		<path class="st35" d="M1836.5,515.4c0.8-1,2,0.6,2,0.6s-2.3,3.7-2.5,7.7c-0.3,7.3,11.2,7.4,11.3,0.7c0.1-5.1-3.1-7.4-3.1-7.4
			s1.1-0.9,1.5-1.4c1.6,2.2,3.3,4.5,3.6,7.2c1.3,11.7-13.4,10.3-15.3,4.8C1832.4,522.3,1834.2,518.3,1836.5,515.4"/>
		<path class="st13" d="M1834.5,503.3c-0.3-1,0.3-2.3,0.7-3.3c-0.1,0.1,0.1-0.2,0.1-0.2c0.1-0.1,0.1-0.3,0.2-0.4
			c0.1-0.3,0.3-0.6,0.4-0.9c0.3-0.5,0.6-1.1,1-1.6c1.3-1.8,3.2-3.4,5.3-4.5c0.8-0.4,1-1.5,0.6-2.3c-0.5-0.8-1.5-1-2.3-0.6
			c-2.6,1.4-4.9,3.4-6.6,5.9c-0.8,1.2-1.5,2.5-2,3.9c-0.6,1.5-1.1,3.3-0.6,4.9C1831.8,506.3,1835.1,505.4,1834.5,503.3"/>
		<path class="st13" d="M1833.7,501.4C1833.7,501.4,1833.7,501.4,1833.7,501.4c0.2,0.3,0.4,0.6,0.7,1c0,0.1,0,1-0.2,1.1
			c0.1,0,0.2-0.2,0.3-0.3c0.1-0.1,0.3-0.3,0.4-0.4c0.2-0.2,0.3-0.3,0.5-0.5c0.1-0.1,0.2-0.1,0.2-0.2c0.1-0.1,0.2-0.1,0,0
			c0.7-0.5,1.5-1,2.3-1.4c0,0,0.3-0.1,0.1-0.1c-0.2,0.1,0.1,0,0.2-0.1c0.2-0.1,0.4-0.2,0.6-0.2c0.4-0.1,0.8-0.3,1.3-0.3
			c0.2,0,0.4-0.1,0.6-0.1c0.1,0,0.3,0,0.1,0c0.1,0,0.2,0,0.3,0c0.5,0,0.9-0.1,1.4-0.1c0.9,0,1.7-0.8,1.7-1.7c0-0.9-0.7-1.7-1.7-1.7
			c-2.4,0-4.8,0.6-7,1.7c-1.7,0.9-6.6,4.2-3.6,6.2c0.7,0.5,1.9,0.2,2.3-0.6C1834.8,502.9,1834.5,501.9,1833.7,501.4"/>
		<path class="st13" d="M1745.5,491.7c-0.1,5.9-1.6,11.6-4.4,16.8c-0.6,1-1.8,2.3-1.5,3.5c0.2,1.1,1.6,1.7,2.5,2.3
			c2.6,1.6,5.4,2.8,8.3,3.7c1.5,0.5,2.2-1.9,0.7-2.4c-2.6-0.8-5.1-2-7.5-3.4c-0.3-0.2-0.5-0.3-0.8-0.5c-0.1-0.1-0.3-0.2-0.4-0.2
			c-0.4-0.3-0.5-0.4-0.3-0.1c0,0.5,0.4-0.3,0.4-0.4c0.2-0.3,0.4-0.6,0.6-0.9c0.6-1.1,1.2-2.3,1.8-3.5c2.1-4.7,3.2-9.8,3.2-14.9
			C1748,490.1,1745.5,490.1,1745.5,491.7"/>
		<path class="st13" d="M1718.4,478.8c3.2-1.3,6.5-2.3,9.8-3.1c3.4-0.8,6.3-1.2,9.7-1.4c1.7-0.1,3.3-1.4,3.2-3.2
			c-0.1-1.6-1.4-3.3-3.2-3.2c-7.3,0.4-14.5,2-21.3,4.7c-1.5,0.6-2.8,2.1-2.2,3.9C1714.9,478,1716.7,479.5,1718.4,478.8"/>
		<path class="st13" d="M1760.4,474.3c7.5-0.2,15,1.3,21.8,4.7c1.5,0.8,3.4,0.4,4.3-1.1c0.8-1.4,0.4-3.6-1.1-4.3
			c-7.8-3.8-16.3-5.8-25-5.6c-1.7,0.1-3.2,1.4-3.2,3.2C1757.2,472.8,1758.6,474.4,1760.4,474.3"/>
		<path class="st13" d="M1729.1,497.4L1729.1,497.4c-2.1,0-3.8-1.7-3.8-3.7v-3.9c0-2,1.7-3.7,3.7-3.7h0.1c2,0,3.7,1.7,3.7,3.7v3.9
			C1732.8,495.7,1731.1,497.4,1729.1,497.4"/>
		<path class="st13" d="M1767.3,497.4L1767.3,497.4c-2.1,0-3.8-1.7-3.8-3.7v-3.9c0-2,1.7-3.7,3.7-3.7h0.1c2,0,3.7,1.7,3.7,3.7v3.9
			C1771,495.7,1769.3,497.4,1767.3,497.4"/>
	</g>
</g>
</svg>
